# xmcd
# 
# Track frame offsets:
#     150
#     14383
#     35533
#     48980
#     68217
#     90645
#     115039
#     133347
#     152296
#     169473
#     195327
#     211448
#     229836
#     256206
#     274892
# 
# Disc length: 3834
# 
# Revision: 1
# Processed by: cddbd v1.5.2PL0 Copyright (c) Steve Scherf et al.
# Submitted via: fre:ac v1.0.31
# 
DISCID=ce0ef80f
DTITLE=Carole King - Live At The Troubadour With James Taylor
DYEAR=2010
DGENRE=Rock/Pop
TTITLE0=Blossom
TTITLE1=So Far Away
TTITLE2=Machine Gun Kelly
TTITLE3=Carolina in My Mind
TTITLE4=It's Too Late
TTITLE5=Smackwater Jack
TTITLE6=Something in the Way She Moves
TTITLE7=Will You Love Me Tomorrow
TTITLE8=Country Road
TTITLE9=Fire and Rain
TTITLE10=Sweet Baby James
TTITLE11=I Feel the Earth Move
TTITLE12=You've Got a Friend
TTITLE13=Up on the Roof
TTITLE14=You Can Close Your Eyes
EXTD=
EXTT0=
EXTT1=
EXTT2=
EXTT3=
EXTT4=
EXTT5=
EXTT6=
EXTT7=
EXTT8=
EXTT9=
EXTT10=
EXTT11=
EXTT12=
EXTT13=
EXTT14=
PLAYORDER=
